<svg aria-hidden="true" style="position:absolute;width:0;height:0" xmlns="http://www.w3.org/2000/svg" overflow="hidden">
    <defs>
    <!-- Nav-icons -->
        <symbol id="hamburger" viewBox="0 0 47 32">
            <path fill="none" stroke-linejoin="round" stroke-linecap="round" stroke-width="4.364" stroke="#000" d="M1.96 29.154h42.965M1.96 15.615h42.965M1.96 2.077h42.965"/>
        </symbol>

        <symbol id="search" viewBox="0 0 32 32">
            <path d="m29.156 29.961-.709.709a2.006 2.006 0 0 1-2.838 0l-5.676-5.674c-.656-.658-.729-1.644-.281-2.412l-3.104-3.102a9.975 9.975 0 0 1-5.965 1.979C5.043 21.461.552 16.97.552 11.43S5.043 1.398 10.583 1.398c5.541 0 10.031 4.491 10.031 10.032 0 2.579-.98 4.923-2.58 6.7l3.035 3.035c.768-.447 1.754-.375 2.41.283l5.676 5.674c.784.785.784 2.056.001 2.839zM18.088 11.389c0-4.155-3.369-7.523-7.524-7.523a7.523 7.523 0 1 0-.001 15.046 7.525 7.525 0 0 0 7.525-7.523z"/>
        </symbol>

        <symbol id="person" viewBox="0 0 24 24">
            <path d="M12 14.016q2.531 0 5.273 1.102t2.742 2.883v2.016H3.984v-2.016q0-1.781 2.742-2.883t5.273-1.102zM12 12q-1.641 0-2.813-1.172T8.015 8.015t1.172-2.836T12 3.984t2.813 1.195 1.172 2.836-1.172 2.813T12 12z"/>
        </symbol>

    <!-- Side Nav Icons -->
        <symbol id="home" viewBox="0 0 32 32">
            <path d="M32 18.451 16 6.031 0 18.451v-5.064L16 .967l16 12.42zM28 18v12h-8v-8h-8v8H4V18l12-9z"/>
        </symbol>
        
        <symbol id="books" viewBox="0 0 36 32">
            <path d="M7 4H1c-.55 0-1 .45-1 1v22c0 .55.45 1 1 1h6c.55 0 1-.45 1-1V5c0-.55-.45-1-1-1zm-1 6H2V8h4v2zM17 4h-6c-.55 0-1 .45-1 1v22c0 .55.45 1 1 1h6c.55 0 1-.45 1-1V5c0-.55-.45-1-1-1zm-1 6h-4V8h4v2z"/>
            <path d="m23.909 5.546-5.358 2.7a1.003 1.003 0 0 0-.443 1.343l8.999 17.861c.247.491.852.691 1.343.443l5.358-2.7c.491-.247.691-.852.443-1.343L25.252 5.989a1.003 1.003 0 0 0-1.343-.443z"/>
        </symbol>

        <symbol id="bookmark" viewBox="0 0 32 32">
            <path d="M25 29H9V7h7v9.125l3.541-2.688L23 16.125V7h4v20a2 2 0 0 1-2 2zm-5.459-16.875-2.541 2V6h5v8.125l-2.459-2zM6 5v1a1 1 0 0 0 1 1h1v22H7a2 2 0 0 1-2-2V5a2 2 0 0 1 2-2h18c.738 0 1.376.404 1.723 1H7a1 1 0 0 0-1 1z"/>
        </symbol>

        <symbol id="star" viewBox="0 0 32 32">
            <path d="m32 12.408-11.056-1.607L16 .783l-4.944 10.018L0 12.408l8 7.798-1.889 11.011L16 26.018l9.889 5.199L24 20.206l8-7.798z"/>
        </symbol>

        <symbol id="half-star" viewBox="0 0 32 32">
            <path d="m32 12.408-11.056-1.607L16 .783l-4.944 10.018L0 12.408l8 7.798-1.889 11.011L16 26.018l9.889 5.199L24 20.206l8-7.798zM16 23.547l-.029.015L16 5.725l3.492 7.075 7.807 1.134-5.65 5.507 1.334 7.776L16 23.546z"/>
        </symbol>  

        <symbol id="empty-star" viewBox="0 0 32 32">
             <path d="m32 12.408-11.056-1.607L16 .783l-4.944 10.018L0 12.408l8 7.798-1.889 11.011L16 26.018l9.889 5.199L24 20.206l8-7.798zM16 23.547l-6.983 3.671 1.334-7.776-5.65-5.507 7.808-1.134 3.492-7.075 3.492 7.075 7.807 1.134-5.65 5.507 1.334 7.776-6.983-3.671z"/>
        </symbol>

        <symbol id="history" viewBox="0 0 24 24">
            <path d="M12 8.016h1.5v4.219l3.516 2.109-.75 1.219L12 12.985V8.016zM12.984 3q3.703 0 6.352 2.625T21.984 12t-2.648 6.375T12.984 21q-1.547 0-3.398-.773t-2.93-1.852l1.406-1.453q2.063 2.063 4.922 2.063 2.906 0 4.969-2.039t2.063-4.945-2.063-4.945-4.969-2.039-4.945 2.039T6 12.001h3l-4.031 4.031-.094-.141L.984 12h3q0-3.75 2.648-6.375T12.984 3z"/>
        </symbol>

    <!-- Modal Icons -->
        <symbol id="close" viewBox="0 0 24 24">
            <path d="M5.293 6.707 10.586 12l-5.293 5.293a.999.999 0 1 0 1.414 1.414L12 13.414l5.293 5.293a.999.999 0 1 0 1.414-1.414L13.414 12l5.293-5.293a.999.999 0 1 0-1.414-1.414L12 10.586 6.707 5.293a.999.999 0 1 0-1.414 1.414z"/>
        </symbol>

        <symbol id="person" viewBox="0 0 24 24">
            <path d="M12 14.016q2.531 0 5.273 1.102t2.742 2.883v2.016H3.984v-2.016q0-1.781 2.742-2.883t5.273-1.102zM12 12q-1.641 0-2.813-1.172T8.015 8.015t1.172-2.836T12 3.984t2.813 1.195 1.172 2.836-1.172 2.813T12 12z"/>
        </symbol>

        <symbol id="key" viewBox="0 0 24 24">
            <path d="M6.984 14.016q.797 0 1.406-.609t.609-1.406-.609-1.406-1.406-.609-1.383.609-.586 1.406.586 1.406 1.383.609zm5.672-4.032h10.359v4.031h-2.016v3.984h-3.984v-3.984h-4.359q-.609 1.641-2.273 2.813T6.985 18q-2.484 0-4.242-1.758T.985 12t1.758-4.242T6.985 6q1.734 0 3.398 1.172t2.273 2.813z"/>
        </symbol>

        <symbol id="eye-open" viewBox="0 0 32 32">
            <path d="M16 6C9.021 6 2.972 10.064 0 16c2.972 5.936 9.021 10 16 10s13.027-4.064 16-10c-2.972-5.936-9.021-10-16-10zm7.889 5.303A15.212 15.212 0 0 1 28.559 16a15.223 15.223 0 0 1-4.67 4.697C21.527 22.204 18.799 23 16 23s-5.527-.796-7.889-2.303A15.212 15.212 0 0 1 3.441 16a15.223 15.223 0 0 1 5.041-4.925 8 8 0 1 0 15.036 0c.124.074.248.15.371.228zM16 13a3 3 0 1 1-6 0 3 3 0 0 1 6 0z"/>
        </symbol>

    <!-- Carousel Icons -->
        <symbol id="fire" viewBox="0 0 24 24">
            <path d="M14.719 17.625q-0.234 0.234-0.586 0.422t-0.633 0.281q-0.844 0.281-1.664 0.023t-1.383-0.727q-0.094-0.094-0.070-0.188t0.117-0.141q0.891-0.281 1.406-0.891t0.703-1.313q0.141-0.656-0.047-1.266t-0.281-1.266q-0.094-0.516-0.070-1.008t0.211-0.961q0-0.094 0.094-0.094t0.141 0.047q0.281 0.609 0.727 1.078t0.938 0.891 0.891 0.914 0.492 1.148q0.047 0.281 0.047 0.516 0.047 0.703-0.234 1.406t-0.797 1.125zM17.531 9.609q-0.563-0.516-1.172-0.938t-1.172-0.984q-1.125-1.125-1.477-2.625t0.117-3.047q0.094-0.234-0.070-0.398t-0.398-0.070q-0.563 0.234-1.055 0.563t-0.961 0.656q-1.453 1.219-2.297 2.883t-0.961 3.563 0.586 3.727q0 0.094 0.023 0.188t0.023 0.188q0 0.422-0.375 0.609t-0.75-0.141q-0.094-0.141-0.141-0.234-0.75-0.938-1.008-2.133t-0.070-2.367q0.047-0.281-0.211-0.422t-0.445 0.094q-0.938 1.219-1.359 2.695t-0.328 2.977q0 0.422 0.070 0.867t0.211 0.867q0.328 1.125 0.891 2.063 0.891 1.5 2.391 2.508t3.234 1.242q1.828 0.234 3.68-0.188t3.258-1.688q1.031-0.984 1.617-2.273t0.633-2.695-0.516-2.719q-0.047-0.094-0.070-0.164t-0.070-0.164q-0.422-0.797-0.938-1.453-0.188-0.281-0.398-0.516t-0.492-0.469z">
            </path>
        </symbol>

        <symbol id="book" viewBox="0 0 32 32">
            <path d="M17 26c0 0 6.188-2.062 11 1.812 0-0.062 0-1.812 0-1.812-5.625-3.125-11 0-11 0zM2 6v19.875c0 0 2.688-1.938 6.5-1.938s6.5 1.938 6.5 1.938v-19.625c0 0-2.688-2.25-6.5-2.25s-6.5 2-6.5 2zM4 8h4v5h-4v-5zM13 21h-9v-1h9v1zM13 19h-9v-1h9v1zM13 17h-9v-1h9v1zM13 15h-9v-1h9v1zM9 8h4v1h-4v-1zM9 10h4v1h-4v-1zM9 12h4v1h-4v-1zM22.5 4c-3.812 0-6.5 2-6.5 2v19.875c0 0 2.688-1.938 6.5-1.938s6.5 1.938 6.5 1.938v-19.625c0 0-2.688-2.25-6.5-2.25zM27 21h-9v-1h9v1zM27 19h-9v-1h9v1zM27 17h-9v-1h9v1zM27 15h-9v-1h9v1zM27 13h-9v-1h9v1zM27 11h-9v-1h9v1zM27 9h-9v-1h9v1zM3 26c0 0 0 1.75 0 1.812 4.812-3.874 11-1.812 11-1.812s-5.375-3.125-11 0z">
            </path>
        </symbol>

    <!-- Content Icons -->
        <symbol id="tag" viewBox="0 0 32 32">
            <path d="M30.5 0h-12c-.825 0-1.977.477-2.561 1.061L1.06 15.94a1.505 1.505 0 0 0 0 2.121L13.939 30.94a1.505 1.505 0 0 0 2.121 0l14.879-14.879C31.522 15.478 32 14.325 32 13.5v-12c0-.825-.675-1.5-1.5-1.5zM23 12a3 3 0 1 1 0-6 3 3 0 0 1 0 6z"/>
        </symbol>

        <symbol id="up" viewBox="0 0 32 32">
            <path d="m22.086 20.914 2.829-2.829-8.914-8.914-8.914 8.914 2.828 2.828 6.086-6.086z"/>
        </symbol>

        <symbol id="bookmark-2" viewBox="0 0 32 32">
          <path d="M6 0v32l10-10 10 10V0z"/>
        </symbol>

        <symbol id="book-2" viewBox="0 0 32 32">
            <path d="M15 25.875v-19.625c0 0-2.688-2.25-6.5-2.25s-6.5 2-6.5 2v19.875c0 0 2.688-1.938 6.5-1.938s6.5 1.938 6.5 1.938zM29 25.875v-19.625c0 0-2.688-2.25-6.5-2.25s-6.5 2-6.5 2v19.875c0 0 2.688-1.938 6.5-1.938s6.5 1.938 6.5 1.938zM31 8h-1v19h-12v1h-5v-1h-12v-19h-1v20h12v1h7.062l-0.062-1h12v-20z"></path>
        </symbol>

    <!-- Table Icons -->
        <symbol id="drawer" viewBox="0 0 32 32">
            <path d="M31.781 20.375l-8-10c-0.19-0.237-0.477-0.375-0.781-0.375h-14c-0.304 0-0.591 0.138-0.781 0.375l-8 10c-0.142 0.177-0.219 0.398-0.219 0.625v9c0 1.105 0.895 2 2 2h28c1.105 0 2-0.895 2-2v-9c0-0.227-0.077-0.447-0.219-0.625zM30 22h-7l-4 4h-6l-4-4h-7v-0.649l7.481-9.351h13.039l7.481 9.351v0.649z"></path>
            <path d="M23 16h-14c-0.552 0-1-0.448-1-1s0.448-1 1-1h14c0.552 0 1 0.448 1 1s-0.448 1-1 1z"></path>
            <path d="M25 20h-18c-0.552 0-1-0.448-1-1s0.448-1 1-1h18c0.552 0 1 0.448 1 1s-0.448 1-1 1z"></path>
        </symbol>

        <symbol id="filter" viewBox="0 0 32 32">
            <path d="M20 9a2 2 0 0 1 0-4.002h.001a2 2 0 0 1 0 4.002H20zm3.858-3c-.447-1.72-2-3-3.858-3s-3.411 1.28-3.858 3H4v2h12.142c.447 1.72 2 3 3.858 3s3.411-1.28 3.858-3H28V6h-4.142zM20 27a2 2 0 0 1 0-4h.001a2 2 0 0 1 0 4H20zm0-6c-1.858 0-3.411 1.28-3.858 3H4v2h12.142c.447 1.72 2 3 3.858 3s3.411-1.28 3.858-3H28v-2h-4.142c-.447-1.72-2-3-3.858-3zm-8-3a2 2 0 1 1 .001-4.002h.001A2 2 0 1 1 12.001 18H12zm0-6c-1.858 0-3.411 1.28-3.858 3H4v2h4.142c.447 1.72 2 3 3.858 3s3.411-1.28 3.858-3H28v-2H15.858c-.447-1.72-2-3-3.858-3z"/>
        </symbol>

        <symbol id="start" viewBox="0 0 20 20">
            <path d="M14.959 4.571 7.756 9.52s-.279.201-.279.481.279.479.279.479l7.203 4.951c.572.38 1.041.099 1.041-.626V5.196c0-.727-.469-1.008-1.041-.625zM6 4H5c-.553 0-1 .048-1 .6v10.8c0 .552.447.6 1 .6h1c.553 0 1-.048 1-.6V4.6c0-.552-.447-.6-1-.6z"/>
        </symbol>

        <symbol id="end" viewBox="0 0 20 20">
            <path d="m5.041 15.429 7.203-4.949s.279-.201.279-.481-.279-.479-.279-.479L5.041 4.569C4.469 4.189 4 4.47 4 5.195v9.609c0 .727.469 1.008 1.041.625zM14 16h1c.553 0 1-.048 1-.6V4.6c0-.552-.447-.6-1-.6h-1c-.553 0-1 .048-1 .6v10.8c0 .552.447.6 1 .6z"/>
        </symbol>

        <symbol id="down" viewBox="0 0 32 32">
            <path d="M9.914 11.086l-2.829 2.829 8.914 8.914 8.914-8.914-2.828-2.828-6.086 6.086z"></path>
        </symbol>

    <!-- Manga Icon -->
        <symbol id="previous" viewBox="0 0 20 20">
            <path d="M12.452 4.516c0.446 0.436 0.481 1.043 0 1.576l-3.747 3.908 3.747 3.908c0.481 0.533 0.446 1.141 0 1.574-0.445 0.436-1.197 0.408-1.615 0-0.418-0.406-4.502-4.695-4.502-4.695-0.223-0.217-0.335-0.502-0.335-0.787s0.112-0.57 0.335-0.789c0 0 4.084-4.287 4.502-4.695s1.17-0.436 1.615 0z"></path>
        </symbol>

        <symbol id="next" viewBox="0 0 20 20">
            <path d="M7.548 4.516c-0.446 0.436-0.481 1.043 0 1.576l3.747 3.908-3.747 3.908c-0.481 0.533-0.446 1.141 0 1.574 0.445 0.436 1.197 0.408 1.615 0 0.418-0.406 4.502-4.695 4.502-4.695 0.223-0.217 0.335-0.502 0.335-0.787s-0.112-0.57-0.335-0.789c0 0-4.084-4.287-4.502-4.695s-1.17-0.436-1.615 0z"></path>
        </symbol>

        <symbol id="list" viewBox="0 0 24 24">
            <path d="M6.984 12.984v-1.969h14.016v1.969h-14.016zM6.984 18.984v-1.969h14.016v1.969h-14.016zM6.984 5.016h14.016v1.969h-14.016v-1.969zM2.016 11.016v-1.031h3v0.938l-1.828 2.063h1.828v1.031h-3v-0.938l1.781-2.063h-1.781zM3 8.016v-3h-0.984v-1.031h1.969v4.031h-0.984zM2.016 17.016v-1.031h3v4.031h-3v-1.031h1.969v-0.469h-0.984v-1.031h0.984v-0.469h-1.969z"></path>
        </symbol>

    <!-- Comment Section -->
        <symbol id="comment" viewBox="0 0 34 32">
            <path d="M25.132 13.165c0-5.165-5.627-9.352-12.566-9.352s-12.566 4.187-12.566 9.352c0 3.104 2.032 5.854 5.16 7.555-0.009 0.027-2.492 4.545-2.492 4.545s7.582-2.892 7.603-2.904c0.744 0.103 1.511 0.155 2.295 0.155 6.939 0 12.566-4.187 12.566-9.351zM34.385 16.087c0-5.164-5.297-9.314-11.031-9.351 8.22 8.188-1.461 16.912-9.351 16.912 0 0 0.877 1.79 7.816 1.79 0.783 0 1.551-0.054 2.295-0.156 0.021 0.014 7.604 2.904 7.604 2.904s-2.484-4.517-2.492-4.544c3.127-1.701 5.159-4.452 5.159-7.555z"></path>
        </symbol>

        <symbol id="upvote" viewBox="0 0 20 20">
            <path d="M10 2.5l7.5 7.5h-3.5v7h-8v-7h-3.5l7.5-7.5z"></path>
        </symbol>

        <symbol id="downvote" viewBox="0 0 20 20">
            <path d="M2.5 10h3.5v-7h8v7h3.5l-7.5 7.5-7.5-7.5z"></path>
        </symbol>

        <symbol id="dropdown-arrow" viewBox="0 0 24 24">
            <path d="M6.984 9.984h10.031l-5.016 5.016z"></path>
        </symbol>
    </defs>
</svg>