<svg aria-hidden="true" style="position:absolute;width:0;height:0" xmlns="http://www.w3.org/2000/svg" overflow="hidden">
    <defs>
    <!-- Nav-icons -->
        <symbol id="hamburger" viewBox="0 0 47 32">
            <path fill="none" stroke-linejoin="round" stroke-linecap="round" stroke-width="4.364" stroke="#000" d="M1.96 29.154h42.965M1.96 15.615h42.965M1.96 2.077h42.965"/>
        </symbol>

        <symbol id="search" viewBox="0 0 32 32">
            <path d="m29.156 29.961-.709.709a2.006 2.006 0 0 1-2.838 0l-5.676-5.674c-.656-.658-.729-1.644-.281-2.412l-3.104-3.102a9.975 9.975 0 0 1-5.965 1.979C5.043 21.461.552 16.97.552 11.43S5.043 1.398 10.583 1.398c5.541 0 10.031 4.491 10.031 10.032 0 2.579-.98 4.923-2.58 6.7l3.035 3.035c.768-.447 1.754-.375 2.41.283l5.676 5.674c.784.785.784 2.056.001 2.839zM18.088 11.389c0-4.155-3.369-7.523-7.524-7.523a7.523 7.523 0 1 0-.001 15.046 7.525 7.525 0 0 0 7.525-7.523z"/>
        </symbol>

        <symbol id="person" viewBox="0 0 24 24">
            <path d="M12 14.016q2.531 0 5.273 1.102t2.742 2.883v2.016H3.984v-2.016q0-1.781 2.742-2.883t5.273-1.102zM12 12q-1.641 0-2.813-1.172T8.015 8.015t1.172-2.836T12 3.984t2.813 1.195 1.172 2.836-1.172 2.813T12 12z"/>
        </symbol>

        <symbol id="notif" viewBox="0 0 20 20">
            <path d="M4 8c0-0.001 0-0.002 0-0.003 0-2.608 1.664-4.827 3.988-5.654l0.042-0.013c-0.016-0.095-0.025-0.204-0.025-0.315 0-1.105 0.895-2 2-2s2 0.895 2 2c0 0.111-0.009 0.22-0.027 0.327l0.002-0.012c2.361 0.843 4.020 3.060 4.020 5.664 0 0.002 0 0.004 0 0.006v-0 6l3 2v1h-18v-1l3-2v-6zM12 18c0 1.105-0.895 2-2 2s-2-0.895-2-2v0h4z"></path>
        </symbol>

        <symbol id="settings" viewBox="0 0 32 32">
            <path d="M29.181 19.070c-1.679-2.908-0.669-6.634 2.255-8.328l-3.145-5.447c-0.898 0.527-1.943 0.829-3.058 0.829-3.361 0-6.085-2.742-6.085-6.125h-6.289c0.008 1.044-0.252 2.103-0.811 3.070-1.679 2.908-5.411 3.897-8.339 2.211l-3.144 5.447c0.905 0.515 1.689 1.268 2.246 2.234 1.676 2.903 0.672 6.623-2.241 8.319l3.145 5.447c0.895-0.522 1.935-0.82 3.044-0.82 3.35 0 6.067 2.725 6.084 6.092h6.289c-0.003-1.034 0.259-2.080 0.811-3.038 1.676-2.903 5.399-3.894 8.325-2.219l3.145-5.447c-0.899-0.515-1.678-1.266-2.232-2.226zM16 22.479c-3.578 0-6.479-2.901-6.479-6.479s2.901-6.479 6.479-6.479c3.578 0 6.479 2.901 6.479 6.479s-2.901 6.479-6.479 6.479z"></path>
        </symbol>

        <symbol id="dark" viewBox="0 0 24 24">
            <path d="M12 18.373q2.639 0 4.506-1.867t1.867-4.506-1.867-4.506-4.506-1.867q-1.295 0-2.639 0.598 1.643 0.747 2.664 2.315t1.021 3.461-1.021 3.461-2.664 2.315q1.344 0.598 2.639 0.598zM20.515 8.465l3.485 3.535-3.485 3.535v4.979h-4.979l-3.535 3.485-3.535-3.485h-4.979v-4.979l-3.485-3.535 3.485-3.535v-4.979h4.979l3.535-3.485 3.535 3.485h4.979v4.979z"></path>
        </symbol>

        <symbol id="light" viewBox="0 0 24 24">
            <path d="M12 18q2.484 0 4.242-1.758t1.758-4.242-1.758-4.242-4.242-1.758-4.242 1.758-1.758 4.242 1.758 4.242 4.242 1.758zM20.016 15.328v4.688h-4.688l-3.328 3.281-3.328-3.281h-4.688v-4.688l-3.281-3.328 3.281-3.328v-4.688h4.688l3.328-3.281 3.328 3.281h4.688v4.688l3.281 3.328z"></path>
        </symbol>
        
        <symbol id="logout" viewBox="0 0 20 20">
            <path d="M19 10l-6-5v3h-7v4h7v3l6-5zM3 3h8v-2h-8c-1.1 0-2 0.9-2 2v14c0 1.1 0.9 2 2 2h8v-2h-8v-14z"></path>
        </symbol>

        <symbol id="more" viewBox="0 0 24 24">
            <path d="M14 12c0-0.552-0.225-1.053-0.586-1.414s-0.862-0.586-1.414-0.586-1.053 0.225-1.414 0.586-0.586 0.862-0.586 1.414 0.225 1.053 0.586 1.414 0.862 0.586 1.414 0.586 1.053-0.225 1.414-0.586 0.586-0.862 0.586-1.414zM14 5c0-0.552-0.225-1.053-0.586-1.414s-0.862-0.586-1.414-0.586-1.053 0.225-1.414 0.586-0.586 0.862-0.586 1.414 0.225 1.053 0.586 1.414 0.862 0.586 1.414 0.586 1.053-0.225 1.414-0.586 0.586-0.862 0.586-1.414zM14 19c0-0.552-0.225-1.053-0.586-1.414s-0.862-0.586-1.414-0.586-1.053 0.225-1.414 0.586-0.586 0.862-0.586 1.414 0.225 1.053 0.586 1.414 0.862 0.586 1.414 0.586 1.053-0.225 1.414-0.586 0.586-0.862 0.586-1.414z"></path>
        </symbol>
        
    <!-- Side Nav Icons -->
        <symbol id="home" viewBox="0 0 32 32">
            <path d="M32 18.451 16 6.031 0 18.451v-5.064L16 .967l16 12.42zM28 18v12h-8v-8h-8v8H4V18l12-9z"/>
        </symbol>
        
        <symbol id="books" viewBox="0 0 36 32">
            <path d="M7 4H1c-.55 0-1 .45-1 1v22c0 .55.45 1 1 1h6c.55 0 1-.45 1-1V5c0-.55-.45-1-1-1zm-1 6H2V8h4v2zM17 4h-6c-.55 0-1 .45-1 1v22c0 .55.45 1 1 1h6c.55 0 1-.45 1-1V5c0-.55-.45-1-1-1zm-1 6h-4V8h4v2z"/>
            <path d="m23.909 5.546-5.358 2.7a1.003 1.003 0 0 0-.443 1.343l8.999 17.861c.247.491.852.691 1.343.443l5.358-2.7c.491-.247.691-.852.443-1.343L25.252 5.989a1.003 1.003 0 0 0-1.343-.443z"/>
        </symbol>

        <symbol id="bookmark" viewBox="0 0 32 32">
            <path d="M25 29H9V7h7v9.125l3.541-2.688L23 16.125V7h4v20a2 2 0 0 1-2 2zm-5.459-16.875-2.541 2V6h5v8.125l-2.459-2zM6 5v1a1 1 0 0 0 1 1h1v22H7a2 2 0 0 1-2-2V5a2 2 0 0 1 2-2h18c.738 0 1.376.404 1.723 1H7a1 1 0 0 0-1 1z"/>
        </symbol>

        <symbol id="star" viewBox="0 0 32 32">
            <path d="m32 12.408-11.056-1.607L16 .783l-4.944 10.018L0 12.408l8 7.798-1.889 11.011L16 26.018l9.889 5.199L24 20.206l8-7.798z"/>
        </symbol>

        <symbol id="half-star" viewBox="0 0 32 32">
            <path d="m32 12.408-11.056-1.607L16 .783l-4.944 10.018L0 12.408l8 7.798-1.889 11.011L16 26.018l9.889 5.199L24 20.206l8-7.798zM16 23.547l-.029.015L16 5.725l3.492 7.075 7.807 1.134-5.65 5.507 1.334 7.776L16 23.546z"/>
        </symbol>  

        <symbol id="empty-star" viewBox="0 0 32 32">
             <path d="m32 12.408-11.056-1.607L16 .783l-4.944 10.018L0 12.408l8 7.798-1.889 11.011L16 26.018l9.889 5.199L24 20.206l8-7.798zM16 23.547l-6.983 3.671 1.334-7.776-5.65-5.507 7.808-1.134 3.492-7.075 3.492 7.075 7.807 1.134-5.65 5.507 1.334 7.776-6.983-3.671z"/>
        </symbol>

        <symbol id="history" viewBox="0 0 24 24">
            <path d="M12 8.016h1.5v4.219l3.516 2.109-.75 1.219L12 12.985V8.016zM12.984 3q3.703 0 6.352 2.625T21.984 12t-2.648 6.375T12.984 21q-1.547 0-3.398-.773t-2.93-1.852l1.406-1.453q2.063 2.063 4.922 2.063 2.906 0 4.969-2.039t2.063-4.945-2.063-4.945-4.969-2.039-4.945 2.039T6 12.001h3l-4.031 4.031-.094-.141L.984 12h3q0-3.75 2.648-6.375T12.984 3z"/>
        </symbol>

    <!-- Modal Icons -->
        <symbol id="close" viewBox="0 0 24 24">
            <path d="M5.293 6.707 10.586 12l-5.293 5.293a.999.999 0 1 0 1.414 1.414L12 13.414l5.293 5.293a.999.999 0 1 0 1.414-1.414L13.414 12l5.293-5.293a.999.999 0 1 0-1.414-1.414L12 10.586 6.707 5.293a.999.999 0 1 0-1.414 1.414z"/>
        </symbol>

        <symbol id="person" viewBox="0 0 24 24">
            <path d="M12 14.016q2.531 0 5.273 1.102t2.742 2.883v2.016H3.984v-2.016q0-1.781 2.742-2.883t5.273-1.102zM12 12q-1.641 0-2.813-1.172T8.015 8.015t1.172-2.836T12 3.984t2.813 1.195 1.172 2.836-1.172 2.813T12 12z"/>
        </symbol>

        <symbol id="key" viewBox="0 0 24 24">
            <path d="M6.984 14.016q.797 0 1.406-.609t.609-1.406-.609-1.406-1.406-.609-1.383.609-.586 1.406.586 1.406 1.383.609zm5.672-4.032h10.359v4.031h-2.016v3.984h-3.984v-3.984h-4.359q-.609 1.641-2.273 2.813T6.985 18q-2.484 0-4.242-1.758T.985 12t1.758-4.242T6.985 6q1.734 0 3.398 1.172t2.273 2.813z"/>
        </symbol>

        <symbol id="eye-open" viewBox="0 0 32 32">
            <path d="M16 6C9.021 6 2.972 10.064 0 16c2.972 5.936 9.021 10 16 10s13.027-4.064 16-10c-2.972-5.936-9.021-10-16-10zm7.889 5.303A15.212 15.212 0 0 1 28.559 16a15.223 15.223 0 0 1-4.67 4.697C21.527 22.204 18.799 23 16 23s-5.527-.796-7.889-2.303A15.212 15.212 0 0 1 3.441 16a15.223 15.223 0 0 1 5.041-4.925 8 8 0 1 0 15.036 0c.124.074.248.15.371.228zM16 13a3 3 0 1 1-6 0 3 3 0 0 1 6 0z"/>
        </symbol>

        <symbol id="eye-close" viewBox="0 0 32 32">
            <path d="M29.561 0.439c-0.586-0.586-1.535-0.586-2.121 0l-6.318 6.318c-1.623-0.492-3.342-0.757-5.122-0.757-6.979 0-13.028 4.064-16 10 1.285 2.566 3.145 4.782 5.407 6.472l-4.968 4.968c-0.586 0.586-0.586 1.535 0 2.121 0.293 0.293 0.677 0.439 1.061 0.439s0.768-0.146 1.061-0.439l27-27c0.586-0.586 0.586-1.536 0-2.121zM13 10c1.32 0 2.44 0.853 2.841 2.037l-3.804 3.804c-1.184-0.401-2.037-1.521-2.037-2.841 0-1.657 1.343-3 3-3zM3.441 16c1.197-1.891 2.79-3.498 4.67-4.697 0.122-0.078 0.246-0.154 0.371-0.228-0.311 0.854-0.482 1.776-0.482 2.737 0 1.715 0.54 3.304 1.459 4.607l-1.904 1.904c-1.639-1.151-3.038-2.621-4.114-4.323z"></path>
            <path d="M24 13.813c0-0.849-0.133-1.667-0.378-2.434l-10.056 10.056c0.768 0.245 1.586 0.378 2.435 0.378 4.418 0 8-3.582 8-8z"></path>
            <path d="M25.938 9.062l-2.168 2.168c0.040 0.025 0.079 0.049 0.118 0.074 1.88 1.199 3.473 2.805 4.67 4.697-1.197 1.891-2.79 3.498-4.67 4.697-2.362 1.507-5.090 2.303-7.889 2.303-1.208 0-2.403-0.149-3.561-0.439l-2.403 2.403c1.866 0.671 3.873 1.036 5.964 1.036 6.978 0 13.027-4.064 16-10-1.407-2.81-3.504-5.2-6.062-6.938z"></path>
        </symbol>

        <symbol id="minus" viewBox="0 0 24 24">
            <path d="M5 13h14c0.552 0 1-0.448 1-1s-0.448-1-1-1h-14c-0.552 0-1 0.448-1 1s0.448 1 1 1z"></path>
        </symbol>

        <symbol id="plus" viewBox="0 0 24 24">
            <path d="M5 13h6v6c0 0.552 0.448 1 1 1s1-0.448 1-1v-6h6c0.552 0 1-0.448 1-1s-0.448-1-1-1h-6v-6c0-0.552-0.448-1-1-1s-1 0.448-1 1v6h-6c-0.552 0-1 0.448-1 1s0.448 1 1 1z"></path>
        </symbol>
        
        <symbol id="email" viewBox="0 0 32 32">
            <path d="M16.015 18.861l-4.072-3.343-8.862 10.463h25.876l-8.863-10.567-4.079 3.447zM29.926 6.019h-27.815l13.908 11.698 13.907-11.698zM20.705 14.887l9.291 11.084v-18.952l-9.291 7.868zM2.004 7.019v18.952l9.291-11.084-9.291-7.868z"></path>
        </symbol>

        <symbol id="bin" viewBox="0 0 32 32">
            <path d="M6 32h20l2-22h-24zM20 4v-4h-8v4h-10v6l2-2h24l2 2v-6h-10zM18 4h-4v-2h4v2z"></path>
        </symbol>

    <!-- Carousel Icons -->
        <symbol id="fire" viewBox="0 0 24 24">
            <path d="M14.719 17.625q-0.234 0.234-0.586 0.422t-0.633 0.281q-0.844 0.281-1.664 0.023t-1.383-0.727q-0.094-0.094-0.070-0.188t0.117-0.141q0.891-0.281 1.406-0.891t0.703-1.313q0.141-0.656-0.047-1.266t-0.281-1.266q-0.094-0.516-0.070-1.008t0.211-0.961q0-0.094 0.094-0.094t0.141 0.047q0.281 0.609 0.727 1.078t0.938 0.891 0.891 0.914 0.492 1.148q0.047 0.281 0.047 0.516 0.047 0.703-0.234 1.406t-0.797 1.125zM17.531 9.609q-0.563-0.516-1.172-0.938t-1.172-0.984q-1.125-1.125-1.477-2.625t0.117-3.047q0.094-0.234-0.070-0.398t-0.398-0.070q-0.563 0.234-1.055 0.563t-0.961 0.656q-1.453 1.219-2.297 2.883t-0.961 3.563 0.586 3.727q0 0.094 0.023 0.188t0.023 0.188q0 0.422-0.375 0.609t-0.75-0.141q-0.094-0.141-0.141-0.234-0.75-0.938-1.008-2.133t-0.070-2.367q0.047-0.281-0.211-0.422t-0.445 0.094q-0.938 1.219-1.359 2.695t-0.328 2.977q0 0.422 0.070 0.867t0.211 0.867q0.328 1.125 0.891 2.063 0.891 1.5 2.391 2.508t3.234 1.242q1.828 0.234 3.68-0.188t3.258-1.688q1.031-0.984 1.617-2.273t0.633-2.695-0.516-2.719q-0.047-0.094-0.070-0.164t-0.070-0.164q-0.422-0.797-0.938-1.453-0.188-0.281-0.398-0.516t-0.492-0.469z">
            </path>
        </symbol>

        <symbol id="book" viewBox="0 0 32 32">
            <path d="M17 26c0 0 6.188-2.062 11 1.812 0-0.062 0-1.812 0-1.812-5.625-3.125-11 0-11 0zM2 6v19.875c0 0 2.688-1.938 6.5-1.938s6.5 1.938 6.5 1.938v-19.625c0 0-2.688-2.25-6.5-2.25s-6.5 2-6.5 2zM4 8h4v5h-4v-5zM13 21h-9v-1h9v1zM13 19h-9v-1h9v1zM13 17h-9v-1h9v1zM13 15h-9v-1h9v1zM9 8h4v1h-4v-1zM9 10h4v1h-4v-1zM9 12h4v1h-4v-1zM22.5 4c-3.812 0-6.5 2-6.5 2v19.875c0 0 2.688-1.938 6.5-1.938s6.5 1.938 6.5 1.938v-19.625c0 0-2.688-2.25-6.5-2.25zM27 21h-9v-1h9v1zM27 19h-9v-1h9v1zM27 17h-9v-1h9v1zM27 15h-9v-1h9v1zM27 13h-9v-1h9v1zM27 11h-9v-1h9v1zM27 9h-9v-1h9v1zM3 26c0 0 0 1.75 0 1.812 4.812-3.874 11-1.812 11-1.812s-5.375-3.125-11 0z">
            </path>
        </symbol>

    <!-- Content Icons -->
        <symbol id="tag" viewBox="0 0 32 32">
            <path d="M30.5 0h-12c-.825 0-1.977.477-2.561 1.061L1.06 15.94a1.505 1.505 0 0 0 0 2.121L13.939 30.94a1.505 1.505 0 0 0 2.121 0l14.879-14.879C31.522 15.478 32 14.325 32 13.5v-12c0-.825-.675-1.5-1.5-1.5zM23 12a3 3 0 1 1 0-6 3 3 0 0 1 0 6z"/>
        </symbol>

        <symbol id="up" viewBox="0 0 32 32">
            <path d="m22.086 20.914 2.829-2.829-8.914-8.914-8.914 8.914 2.828 2.828 6.086-6.086z"/>
        </symbol>

        <symbol id="bookmark-2" viewBox="0 0 32 32">
          <path d="M6 0v32l10-10 10 10V0z"/>
        </symbol>

        <symbol id="book-2" viewBox="0 0 32 32">
            <path d="M15 25.875v-19.625c0 0-2.688-2.25-6.5-2.25s-6.5 2-6.5 2v19.875c0 0 2.688-1.938 6.5-1.938s6.5 1.938 6.5 1.938zM29 25.875v-19.625c0 0-2.688-2.25-6.5-2.25s-6.5 2-6.5 2v19.875c0 0 2.688-1.938 6.5-1.938s6.5 1.938 6.5 1.938zM31 8h-1v19h-12v1h-5v-1h-12v-19h-1v20h12v1h7.062l-0.062-1h12v-20z"></path>
        </symbol>

    <!-- Table Icons -->
        <symbol id="drawer" viewBox="0 0 32 32">
            <path d="M31.781 20.375l-8-10c-0.19-0.237-0.477-0.375-0.781-0.375h-14c-0.304 0-0.591 0.138-0.781 0.375l-8 10c-0.142 0.177-0.219 0.398-0.219 0.625v9c0 1.105 0.895 2 2 2h28c1.105 0 2-0.895 2-2v-9c0-0.227-0.077-0.447-0.219-0.625zM30 22h-7l-4 4h-6l-4-4h-7v-0.649l7.481-9.351h13.039l7.481 9.351v0.649z"></path>
            <path d="M23 16h-14c-0.552 0-1-0.448-1-1s0.448-1 1-1h14c0.552 0 1 0.448 1 1s-0.448 1-1 1z"></path>
            <path d="M25 20h-18c-0.552 0-1-0.448-1-1s0.448-1 1-1h18c0.552 0 1 0.448 1 1s-0.448 1-1 1z"></path>
        </symbol>

        <symbol id="filter" viewBox="0 0 32 32">
            <path d="M20 9a2 2 0 0 1 0-4.002h.001a2 2 0 0 1 0 4.002H20zm3.858-3c-.447-1.72-2-3-3.858-3s-3.411 1.28-3.858 3H4v2h12.142c.447 1.72 2 3 3.858 3s3.411-1.28 3.858-3H28V6h-4.142zM20 27a2 2 0 0 1 0-4h.001a2 2 0 0 1 0 4H20zm0-6c-1.858 0-3.411 1.28-3.858 3H4v2h12.142c.447 1.72 2 3 3.858 3s3.411-1.28 3.858-3H28v-2h-4.142c-.447-1.72-2-3-3.858-3zm-8-3a2 2 0 1 1 .001-4.002h.001A2 2 0 1 1 12.001 18H12zm0-6c-1.858 0-3.411 1.28-3.858 3H4v2h4.142c.447 1.72 2 3 3.858 3s3.411-1.28 3.858-3H28v-2H15.858c-.447-1.72-2-3-3.858-3z"/>
        </symbol>

        <symbol id="start" viewBox="0 0 20 20">
            <path d="M14.959 4.571 7.756 9.52s-.279.201-.279.481.279.479.279.479l7.203 4.951c.572.38 1.041.099 1.041-.626V5.196c0-.727-.469-1.008-1.041-.625zM6 4H5c-.553 0-1 .048-1 .6v10.8c0 .552.447.6 1 .6h1c.553 0 1-.048 1-.6V4.6c0-.552-.447-.6-1-.6z"/>
        </symbol>

        <symbol id="end" viewBox="0 0 20 20">
            <path d="m5.041 15.429 7.203-4.949s.279-.201.279-.481-.279-.479-.279-.479L5.041 4.569C4.469 4.189 4 4.47 4 5.195v9.609c0 .727.469 1.008 1.041.625zM14 16h1c.553 0 1-.048 1-.6V4.6c0-.552-.447-.6-1-.6h-1c-.553 0-1 .048-1 .6v10.8c0 .552.447.6 1 .6z"/>
        </symbol>

        <symbol id="down" viewBox="0 0 32 32">
            <path d="M9.914 11.086l-2.829 2.829 8.914 8.914 8.914-8.914-2.828-2.828-6.086 6.086z"></path>
        </symbol>

        <symbol id="a-z" viewBox="0 0 32 32">
            <path d="M10 24v-24h-4v24h-5l7 7 7-7h-5z"></path>
            <path d="M29 32h-8c-0.369 0-0.708-0.203-0.882-0.528s-0.155-0.72 0.050-1.027l6.963-10.445h-6.131c-0.552 0-1-0.448-1-1s0.448-1 1-1h8c0.369 0 0.708 0.203 0.882 0.528s0.155 0.72-0.050 1.027l-6.963 10.445h6.131c0.552 0 1 0.448 1 1s-0.448 1-1 1z"></path>
            <path d="M31.894 12.553l-6-12c-0.169-0.339-0.516-0.553-0.894-0.553s-0.725 0.214-0.895 0.553l-6 12c-0.247 0.494-0.047 1.095 0.447 1.342 0.144 0.072 0.296 0.106 0.447 0.106 0.367 0 0.72-0.203 0.895-0.553l1.724-3.447h6.764l1.724 3.447c0.247 0.494 0.848 0.694 1.342 0.447s0.694-0.848 0.447-1.342zM22.618 8l2.382-4.764 2.382 4.764h-4.764z"></path>
        </symbol>

        <symbol id="z-a" viewBox="0 0 32 32">
            <path d="M10 24v-24h-4v24h-5l7 7 7-7h-5z"></path>
            <path d="M29 14h-8c-0.369 0-0.708-0.203-0.882-0.528s-0.155-0.72 0.050-1.027l6.963-10.445h-6.131c-0.552 0-1-0.448-1-1s0.448-1 1-1h8c0.369 0 0.708 0.203 0.882 0.528s0.155 0.72-0.050 1.027l-6.963 10.445h6.131c0.552 0 1 0.448 1 1s-0.448 1-1 1z"></path>
            <path d="M31.894 30.553l-6-12c-0.169-0.339-0.516-0.553-0.894-0.553s-0.725 0.214-0.895 0.553l-6 12c-0.247 0.494-0.047 1.095 0.447 1.342 0.144 0.072 0.296 0.106 0.447 0.106 0.367 0 0.72-0.203 0.895-0.553l1.724-3.447h6.764l1.724 3.447c0.247 0.494 0.848 0.694 1.342 0.447s0.694-0.848 0.447-1.342zM22.618 26l2.382-4.764 2.382 4.764h-4.764z"></path>
        </symbol>
        
        <symbol id="check" viewBox="0 0 32 32">
            <path d="M27 4l-15 15-7-7-5 5 12 12 20-20z"></path>
        </symbol>

        <symbol id="check-2" viewBox="0 0 32 32">
            <path d="M23.163 12.345l-1.233-1.233c-0.228-0.228-0.596-0.228-0.822 0l-7.402 7.401-3.519-3.547c-0.229-0.228-0.596-0.228-0.825 0l-1.233 1.234c-0.228 0.228-0.228 0.596 0 0.822l5.161 5.198c0.228 0.226 0.596 0.226 0.822 0l9.051-9.051c0.229-0.228 0.229-0.596 0-0.823zM16 0c-8.837 0-16 7.163-16 16s7.163 16 16 16 16-7.163 16-16-7.163-16-16-16zM16 28.308c-6.796 0-12.308-5.511-12.308-12.308 0-6.798 5.511-12.308 12.308-12.308 6.798 0 12.308 5.51 12.308 12.308 0 6.796-5.51 12.308-12.308 12.308z"></path>
        </symbol>

        <symbol id="tag" viewBox="0 0 32 32">
            <path d="M30.5 0h-12c-0.825 0-1.977 0.477-2.561 1.061l-14.879 14.879c-0.583 0.583-0.583 1.538 0 2.121l12.879 12.879c0.583 0.583 1.538 0.583 2.121 0l14.879-14.879c0.583-0.583 1.061-1.736 1.061-2.561v-12c0-0.825-0.675-1.5-1.5-1.5zM23 12c-1.657 0-3-1.343-3-3s1.343-3 3-3 3 1.343 3 3-1.343 3-3 3z"></path>
        </symbol>

        <symbol id="x" viewBox="0 0 32 32">
            <path d="M30 24.398l-8.406-8.398 8.406-8.398-5.602-5.602-8.398 8.402-8.402-8.402-5.598 5.602 8.398 8.398-8.398 8.398 5.598 5.602 8.402-8.402 8.398 8.402z"></path>
        </symbol>
        
        <symbol id="cancel" viewBox="0 0 32 32">
            <path d="M16 0c-8.837 0-16 7.163-16 16s7.163 16 16 16 16-7.163 16-16-7.163-16-16-16zM16 29c-7.18 0-13-5.82-13-13s5.82-13 13-13 13 5.82 13 13-5.82 13-13 13z"></path>
            <path d="M21 8l-5 5-5-5-3 3 5 5-5 5 3 3 5-5 5 5 3-3-5-5 5-5z"></path>
        </symbol>

        <symbol id="pause" viewBox="0 0 32 32">
            <path d="M16 0c-8.837 0-16 7.163-16 16s7.163 16 16 16 16-7.163 16-16-7.163-16-16-16zM16 29c-7.18 0-13-5.82-13-13s5.82-13 13-13 13 5.82 13 13-5.82 13-13 13zM10 10h4v12h-4zM18 10h4v12h-4z"></path>
        </symbol>

        <symbol id="forward" viewBox="0 0 32 32">
            <path d="M16 0c-8.837 0-16 7.163-16 16s7.163 16 16 16 16-7.163 16-16-7.163-16-16-16zM16 29c-7.18 0-13-5.82-13-13s5.82-13 13-13 13 5.82 13 13-5.82 13-13 13zM10 11l7 5-7 5zM18 11l7 5-7 5z"></path>
        </symbol>

        <symbol id="play" viewBox="0 0 32 32">
            <path d="M16 0c-8.837 0-16 7.163-16 16s7.163 16 16 16 16-7.163 16-16-7.163-16-16-16zM16 29c-7.18 0-13-5.82-13-13s5.82-13 13-13 13 5.82 13 13-5.82 13-13 13zM12 9l12 7-12 7z"></path>
        </symbol>

    <!-- Manga Icon -->
        <symbol id="previous" viewBox="0 0 20 20">
            <path d="M12.452 4.516c0.446 0.436 0.481 1.043 0 1.576l-3.747 3.908 3.747 3.908c0.481 0.533 0.446 1.141 0 1.574-0.445 0.436-1.197 0.408-1.615 0-0.418-0.406-4.502-4.695-4.502-4.695-0.223-0.217-0.335-0.502-0.335-0.787s0.112-0.57 0.335-0.789c0 0 4.084-4.287 4.502-4.695s1.17-0.436 1.615 0z"></path>
        </symbol>

        <symbol id="next" viewBox="0 0 20 20">
            <path d="M7.548 4.516c-0.446 0.436-0.481 1.043 0 1.576l3.747 3.908-3.747 3.908c-0.481 0.533-0.446 1.141 0 1.574 0.445 0.436 1.197 0.408 1.615 0 0.418-0.406 4.502-4.695 4.502-4.695 0.223-0.217 0.335-0.502 0.335-0.787s-0.112-0.57-0.335-0.789c0 0-4.084-4.287-4.502-4.695s-1.17-0.436-1.615 0z"></path>
        </symbol>

        <symbol id="list" viewBox="0 0 24 24">
            <path d="M6.984 12.984v-1.969h14.016v1.969h-14.016zM6.984 18.984v-1.969h14.016v1.969h-14.016zM6.984 5.016h14.016v1.969h-14.016v-1.969zM2.016 11.016v-1.031h3v0.938l-1.828 2.063h1.828v1.031h-3v-0.938l1.781-2.063h-1.781zM3 8.016v-3h-0.984v-1.031h1.969v4.031h-0.984zM2.016 17.016v-1.031h3v4.031h-3v-1.031h1.969v-0.469h-0.984v-1.031h0.984v-0.469h-1.969z"></path>
        </symbol>

    <!-- Comment Section -->
        <symbol id="comment" viewBox="0 0 34 32">
            <path d="M25.132 13.165c0-5.165-5.627-9.352-12.566-9.352s-12.566 4.187-12.566 9.352c0 3.104 2.032 5.854 5.16 7.555-0.009 0.027-2.492 4.545-2.492 4.545s7.582-2.892 7.603-2.904c0.744 0.103 1.511 0.155 2.295 0.155 6.939 0 12.566-4.187 12.566-9.351zM34.385 16.087c0-5.164-5.297-9.314-11.031-9.351 8.22 8.188-1.461 16.912-9.351 16.912 0 0 0.877 1.79 7.816 1.79 0.783 0 1.551-0.054 2.295-0.156 0.021 0.014 7.604 2.904 7.604 2.904s-2.484-4.517-2.492-4.544c3.127-1.701 5.159-4.452 5.159-7.555z"></path>
        </symbol>

        <symbol id="upvote" viewBox="0 0 20 20">
            <path d="M10 2.5l7.5 7.5h-3.5v7h-8v-7h-3.5l7.5-7.5z"></path>
        </symbol>

        <symbol id="downvote" viewBox="0 0 20 20">
            <path d="M2.5 10h3.5v-7h8v7h3.5l-7.5 7.5-7.5-7.5z"></path>
        </symbol>

        <symbol id="dropdown-arrow" viewBox="0 0 24 24">
            <path d="M6.984 9.984h10.031l-5.016 5.016z"></path>
        </symbol>
    </defs>
</svg>